<?xml version="1.0" encoding="utf-8"?>
<!-- Generator: Adobe Illustrator 17.1.0, SVG Export Plug-In . SVG Version: 6.00 Build 0)  -->
<!DOCTYPE svg PUBLIC "-//W3C//DTD SVG 1.1//EN" "http://www.w3.org/Graphics/SVG/1.1/DTD/svg11.dtd">
<svg version="1.1" id="DC-Comics-logo" xmlns="http://www.w3.org/2000/svg" xmlns:xlink="http://www.w3.org/1999/xlink" x="0px"
	 y="0px" viewBox="0 0 1010.0008 941.1006" enable-background="new 0 0 1010.0008 941.1006" xml:space="preserve">
<path id="dc-comics-logo-dc-comics-logo" fill="#231F20" d="M232.2913,638.0493c15.8882-6.0283,18.5987-17.0644,28.1348-45.6963
	c9.5322-28.6357,57.2046-210.9936,74.6831-275.7973c17.478-64.8037,17.1348-58.3687,3.1406-73.3614
	c51.981-2.9985,67.9756-2,55.6504,47.7437c-8.2148,33.1538-72.3398,285.9961-86.6377,313.125
	C292.9603,631.1879,270.4276,639.5562,232.2913,638.0493z M972.0145,733.5131c0.7099,8.833-0.9951,125.9531-0.9951,125.9531
	c-15.584-28.9902-27.3887-51.3926-39.209-71.1123c-9.5362,35.6514-26.5254,66.8711-51.5752,91.9209
	c-123.4287,123.4287-395.6177,52.9004-618.0098-156.2588c-53.7466,0-182.3779,0-182.3779,0l42.7412-162.2402
	C-10.4059,367.9805-41.6105,163.2188,60.7835,60.8247C176.1951-54.5869,421.6756-0.416,634.8924,178.1025
	c-0.0947,0.0298-0.1895,0.0655-0.2881,0.0948c32.7988-9.982,66.0625-11.9741,88.8633-11.9741c52.4746,0,184.4248,0,184.4248,0
	s-33.5518,126.4511-67.6719,253.1958c0.4346-1.6275,0.876-3.2491,1.3106-4.8785c26.2998,42.4746,47.5898,85.1348,63.6787,126.8223
	c0.541-8.2227,1.1445-17.5771,1.831-28.2695c0,0,34.4825,32.9882,49.4834,135.4511c8.8223,6.2452,53.4766,48.4814,53.4766,48.4814
	S986.0203,723.7592,972.0145,733.5131z M613.7733,724.0991c113.1904,40.1016,207.6123,30.6045,245.788-24.0752
	c2.7305-3.9101,5.1846-8.2695,7.3897-12.9961c-13.8281-18.9854-56.7783-79.7529-72.0273-101.3505
	C757.0672,710.1558,657.3182,723.1596,613.7733,724.0991z M961.5115,725.6733l0.4024-0.249
	c17.6279-11.0156,23.5146-18.3701,28.2412-24.2724c1.5625-1.9522,3.0459-3.8028,4.7978-5.6182
	c-18.8984-18.7725-39.6513-32.9287-43.6523-35.5957l-0.2764-0.1885l-0.0468-0.3359c-2.6758-19.6123-10.8184-67.4785-29.3067-95.0967
	c-0.3711,6.7939-0.959,13.3906-1.6728,19.6836c-2.4073,21.207-6.3135,38.7637-8.7354,47.2549l-0.2607,0.8994l-0.8203-0.4463
	c-11.9239-6.458-21.9522-11.5127-30.625-15.5449c-24.1934-11.2481-37.5479-14.3418-49.9248-16.2031
	c14.0214,16.5068,28.6201,36.0527,40.417,51.8505c2.0039,2.6827,3.9013,5.2159,5.7441,7.67
	c8.2539,11.0078,14.8115,19.5459,18.7803,23.5224l0.292,0.2842l-0.087,0.4023c-8.7666,40.918-49.3808,83.0674-58.5029,91.2266
	c4.2529,0.9151,8.7041,1.3731,13.2412,1.3731c32.0528,0,62.5352-22.8565,72.5489-30.3643l0.5918-0.4424l0.4648,0.5606
	c5.1211,6.5175,9.6152,13.0595,13.707,19.5654c10.2383,16.2588,17.7305,32.2852,24.4375,47.0332
	c2.7862-34.877,2.8965-64.7363,0.2998-86.4951L961.5115,725.6733z M832.7957,446.9561c0.1494-0.5503,0.2998-1.1065,0.4492-1.6568
	c-12.83,47.5615-25.416,93.9248-36.0058,132.377c12.8545,0.1699,41.2021,3.0107,81.4892,20.7177
	C875.201,554.2241,860.7606,501.8529,832.7957,446.9561z M548.3494,279.4272c-2.5761,5.5175-4.8369,11.2504-6.6709,17.2475
	c-25.4365,83.083-68.6709,252.7681-78.0786,293.5601c-0.3193,1.3847-0.6054,2.6386-0.8442,3.7158
	c-3.5767,16.125-9.2935,33.959-11.0532,47.9648c27.9633,19.5616,58.2622,36.4405,86.2231,50.2178
	c26.1982,0.0547,55.3506,0.3945,110.208,0.3945c31.4922,0,98.9668-40.4843,119.957-106.4599
	c6.4629-20.3145,20.3819-71.3692,36.0772-130.4517H677.369c-18.0771,68.7095-36.2823,135.2691-43.2256,148.4468
	c-14.3067,27.125-36.835,35.4932-74.9717,33.9863c15.8926-6.0283,18.5996-17.0644,28.1309-45.6963
	c9.54-28.6357,57.2089-210.9936,74.6874-275.7973c17.4785-64.8037,54.0283-79.8711,90.5712-76.8609
	c-20.6582,12.0572-27.0107,36.1719-31.7841,51.2432c-3.5909,11.355-13.4776,49.5864-25.4326,95.7046h127.0195
	c26.4424-100.877,51.9375-200.3887,51.9375-200.3887s-115.7119,0.3711-161.7237,0
	C650.6434,185.7568,577.3328,217.3579,548.3494,279.4272z M190.5013,303.9818l36.29-137.7587c0,0,188.9307,1.499,244.4116,1.499
	c30.3599,0,74.4756,14.7641,80.5987,65.7744c12.3027-17.1016,27.9892-29.9082,45.1601-39.4995
	c-0.4101,0.2324-0.8447,0.4297-1.2548,0.6645c-1.5235-0.9785-3.0147-1.9726-4.545-2.9511
	C331.7557,26.772,215.5628,96.1167,205.8016,103.2461C152.053,142.499,156.1995,219.2061,190.5013,303.9818z M269.1693,693.4868
	c46.0195,0,140.6899-9.5439,166.9824-95.4443c26.3003-85.9043,76.52-279.167,82.8325-312.249
	c19.6953-103.0786-35.4951-98.1744-68.3687-98.1744c-48.6469,0-210.3305-0.4062-210.3305-0.4062l-68.3291,260.4043
	c-4.0894-10.5957-7.9483-20.9268-11.2901-30.3818l12.3492-46.8819l13.0732-49.6235l-3.0478,11.5679
	c-3.1563-4.2725-6.3008-8.5928-9.4214-12.9566c-1.5489-2.166-3.0894-4.3437-4.6241-6.5298
	c-0.1108-0.1577-0.2212-0.3134-0.3295-0.4692c-0.0079-0.0122-0.0137-0.022-0.022-0.0317c-0.0098-0.0157-0.0215-0.0298-0.0313-0.0455
	c-1.5073-2.1523-3.0083-4.3125-4.498-6.4824c-0.0591-0.0869-0.1182-0.1753-0.1773-0.2622
	c-0.0512-0.0732-0.1006-0.1479-0.1499-0.2212c-1.2353-1.7988-2.4599-3.604-3.6792-5.415c-0.3491-0.5186-0.6982-1.0396-1.0454-1.5581
	c-1.2822-1.9155-2.5605-3.8374-3.8252-5.7666c-0.1142-0.1734-0.2251-0.3472-0.3393-0.5186
	c-2.8662-4.3833-5.6875-8.8022-8.4453-13.2529c-0.0889-0.1421-0.1753-0.2842-0.2642-0.4263
	c-1.2842-2.0752-2.5527-4.1601-3.8096-6.2495c-0.1714-0.2876-0.3452-0.5737-0.5185-0.8618
	c-1.3277-2.2173-2.6397-4.4385-3.9317-6.6699c-0.0278-0.0474-0.0532-0.0928-0.0791-0.1382
	c-1.2231-2.1109-2.4262-4.2315-3.6137-6.354c-0.2329-0.416-0.4639-0.8325-0.6968-1.2485c-1.0689-1.9234-2.1245-3.8531-3.1641-5.7862
	c-0.2285-0.4243-0.4555-0.8462-0.6806-1.2705c-1.146-2.1421-2.2745-4.2905-3.3789-6.4448c-0.004-0.0078-0.0103-0.0176-0.0142-0.0254
	c-0.0059-0.0122-0.0117-0.022-0.0176-0.0337c-0.0317-0.063-0.063-0.1284-0.0967-0.1914c-1.1264-2.1997-2.227-4.4048-3.31-6.6162
	c-0.1739-0.3516-0.3433-0.7046-0.5152-1.0576c-1.0136-2.0869-2.0102-4.1763-2.9829-6.271
	c-0.1201-0.2588-0.2383-0.5171-0.3589-0.7754c-1.0532-2.2847-2.0869-4.5728-3.0874-6.8653
	c-0.0039-0.0058-0.0058-0.0117-0.0078-0.0175c-1.0215-2.3379-2.0122-4.6812-2.9746-7.0288c-0.1006-0.2427-0.1972-0.4873-0.2978-0.73
	c-0.8838-2.1699-1.7442-4.3418-2.5767-6.52c-0.1006-0.2583-0.1992-0.5186-0.2959-0.7769c-0.8267-2.1743-1.6235-4.3501-2.397-6.5317
	c-0.0986-0.2823-0.1992-0.5664-0.2978-0.8487c-0.7749-2.2089-1.5205-4.4223-2.2388-6.6401
	c-0.0908-0.2817-0.1797-0.564-0.2681-0.8462c-0.7182-2.2446-1.4086-4.4917-2.0654-6.7407
	c-0.0517-0.1797-0.1006-0.3589-0.1543-0.5366c-0.6845-2.3692-1.3374-4.7383-1.9507-7.1133
	c-0.0039-0.0161-0.0083-0.0337-0.0122-0.0493c-1.2583-4.8828-2.3593-9.7808-3.2983-14.691
	c-0.0352-0.1855-0.0689-0.371-0.1045-0.5585c-0.4458-2.3653-0.856-4.7344-1.2231-7.1055c-0.0137-0.083-0.0254-0.1636-0.0372-0.2466
	c-0.375-2.4424-0.7104-4.8906-0.9985-7.3384c0-0.0019,0-0.0058,0-0.0083c-0.0058-0.0571-0.0117-0.1142-0.0176-0.1694
	c-0.5722-4.9024-0.9648-9.8101-1.166-14.7241c-0.0078-0.1895-0.0156-0.377-0.0215-0.5645c-0.0927-2.4087-0.144-4.8193-0.144-7.2319
	c0-0.0195,0-0.0376,0-0.0552c0.0019-2.458,0.0552-4.918,0.1577-7.3779c0.0039-0.1026,0.0078-0.2051,0.0117-0.3076
	c0.107-2.4463,0.2608-4.8926,0.4678-7.3409c0.0059-0.0551,0.0098-0.1103,0.0137-0.1635c0.2153-2.4976,0.4814-4.9952,0.8051-7.4922
	c-1.7675,1.6963-3.4882,3.4541-5.1826,5.247c-0.2881,0.3062-0.5801,0.606-0.8662,0.9156c-1.6113,1.7319-3.1836,3.5112-4.7226,5.332
	c-0.2998,0.3555-0.5977,0.7163-0.8955,1.0752c-1.5567,1.8779-3.0811,3.7876-4.5586,5.7563
	c-0.1382,0.1836-0.2686,0.375-0.4068,0.5586c-1.4282,1.9234-2.8149,3.8921-4.1645,5.9004c-0.1812,0.272-0.3706,0.5386-0.5523,0.8125
	c-1.3686,2.0674-2.6865,4.1861-3.9668,6.3443c-0.2387,0.3984-0.4736,0.7988-0.7085,1.2016
	c-1.2666,2.1797-2.4951,4.397-3.6709,6.6656c-0.1523,0.2939-0.2959,0.5918-0.4463,0.8857
	c-1.1855,2.3237-2.3276,4.6855-3.4106,7.1001c-0.0435,0.0947-0.0889,0.187-0.1304,0.2817c-1.0967,2.458-2.1284,4.9756-3.1167,7.5298
	c-0.146,0.375-0.292,0.7481-0.436,1.1245c-0.9526,2.5196-1.8525,5.0821-2.6968,7.6919c-0.1103,0.3433-0.2168,0.6885-0.3252,1.0337
	c-1.7363,5.4898-3.2275,11.1753-4.4507,17.0601c-0.0551,0.2622-0.1142,0.5205-0.1674,0.7832
	c-0.5899,2.8999-1.1109,5.8511-1.5704,8.8457c-0.0493,0.333-0.0986,0.6665-0.1479,1.0019
	c-0.4536,3.0733-0.8501,6.1885-1.1621,9.3623c-0.0039,0.0298-0.0059,0.0596-0.0078,0.0889
	c-0.3277,3.3359-0.5742,6.7251-0.7378,10.1675c0,0.0137-0.002,0.0234-0.002,0.0376c-0.1577,3.3296-0.227,6.7168-0.227,10.1474
	c0,0.2686-0.002,0.5367,0,0.8047c0.0122,3.4268,0.0967,6.899,0.2724,10.4219c0.0039,0.103,0.0118,0.2075,0.0176,0.3101
	c0.3652,7.2397,1.083,14.6928,2.1641,22.3466c0.02,0.1382,0.0395,0.2764,0.0595,0.4166c0.5425,3.8012,1.1778,7.6518,1.9053,11.5542
	c0.0239,0.122,0.0474,0.2465,0.0713,0.3686c2.2388,11.9233,5.3521,24.314,9.4116,37.1641c0.0357,0.1084,0.0689,0.2168,0.1045,0.3257
	c2.0459,6.4565,4.3321,13.0258,6.8672,19.7133c2.5347,6.6851,5.3164,13.4854,8.3604,20.3994
	c0.0175,0.0396,0.0337,0.0791,0.0512,0.1187c8.1612,18.5317,18.1787,37.8779,30.2359,58.0176l0.0019,0.0019
	c9.0391,15.0972,19.2281,30.6402,30.6402,46.6192c0.0175,0.0234,0.0317,0.0473,0.0493,0.0708l-0.0396,0.1538
	c0,0,2.606,3.7583,8.4907,11.458c0.7872,1.063,1.5625,2.1206,2.3614,3.1875c0.0298,0.0376,0.0571,0.0752,0.0849,0.1147v-0.0019
	l0.002,0.0019l0.0215-0.0849c3.7461,4.8413,8.5615,10.9428,14.519,18.2885l-0.1299,0.4932
	c15.419,19.4512,32.5972,39.4941,51.6656,60.1211c2.9311,3.1719,5.8706,6.3047,8.8061,9.4258
	c-23.3906-16.1016-45.8027-24.9081-73.0181-21.7275l-41.644,158.7051C107.4422,693.4868,223.1497,693.4868,269.1693,693.4868z
	 M911.2664,770.6c-1.0537,0.5557-2.0957,1.0967-3.1289,1.6289c-0.1972,0.1621-0.3906,0.3281-0.584,0.4893
	c-0.331,0.2802-0.6631,0.5566-0.998,0.833c-0.1973,0.165-0.3945,0.331-0.5957,0.4969c-0.4346,0.3584-0.876,0.7178-1.3184,1.0733
	c-0.9072,0.7296-1.8222,1.4473-2.7373,2.1543c-0.3789,0.2959-0.7578,0.5918-1.1445,0.8839
	c-0.0635,0.0469-0.126,0.0898-0.1856,0.1377c-0.2568,0.1933-0.5087,0.375-0.7617,0.5644c-0.9707,0.7295-1.9326,1.4561-2.9111,2.1582
	c-0.166,0.1221-0.3399,0.2403-0.5137,0.3623c-0.7607,0.541-1.5303,1.0694-2.2959,1.5987c-0.2607,0.1767-0.5166,0.3623-0.7812,0.5439
	c-0.1104,0.0713-0.2207,0.1543-0.3311,0.2285c-0.4346,0.292-0.8681,0.5801-1.3017,0.8682
	c-0.9082,0.6035-1.8155,1.1953-2.7227,1.7755c-0.4658,0.2997-0.9228,0.5918-1.3887,0.8799
	c-0.1347,0.083-0.2646,0.1582-0.3945,0.2412c-0.418,0.2597-0.8369,0.5088-1.2549,0.7646c-0.418,0.253-0.8369,0.5176-1.2549,0.7656
	c-0.3789,0.2296-0.7568,0.4581-1.1279,0.6827c-1.334,0.7773-2.667,1.5429-4.0089,2.2841c-0.2842,0.1581-0.5762,0.3086-0.8603,0.462
	c-1.0733,0.5839-2.1465,1.1562-3.2276,1.7128c-0.4726,0.2442-0.9385,0.4766-1.4121,0.7178c-0.292,0.1455-0.584,0.2881-0.8838,0.4375
	c-0.3711,0.1817-0.7412,0.3672-1.1123,0.5489c-0.2646,0.1298-0.5292,0.2646-0.789,0.3906
	c-0.4815,0.2285-0.9629,0.4619-1.4444,0.6904c-1.0332,0.4854-2.0674,0.9551-3.1094,1.416
	c-0.3544,0.1582-0.7099,0.3242-1.0644,0.4815c-0.0479,0.0195-0.0869,0.0361-0.1348,0.0556c-0.165,0.0713-0.331,0.1377-0.497,0.209
	c-1.168,0.5049-2.336,1.0059-3.5118,1.4795c-0.3623,0.1494-0.7255,0.292-1.0888,0.4336c-0.5596,0.2217-1.1201,0.4346-1.6768,0.6475
	c-0.3506,0.1377-0.6982,0.2763-1.0527,0.4101c-0.1387,0.0557-0.2764,0.1104-0.419,0.1621c-0.497,0.1856-0.9941,0.3662-1.4911,0.5479
	c-0.9542,0.3476-1.9092,0.6865-2.8643,1.0185c-0.4971,0.1729-0.9942,0.3428-1.4912,0.5088
	c-0.1182,0.0391-0.2364,0.0752-0.3516,0.1143c-0.3272,0.1103-0.6543,0.2129-0.9824,0.3154c-0.67,0.2207-1.3408,0.4424-2.0117,0.6553
	c-0.3155,0.0947-0.6309,0.1972-0.9395,0.296c-1.1758,0.3594-2.3516,0.6943-3.5313,1.0293
	c-0.1767,0.0478-0.3544,0.1025-0.5322,0.1582c-0.0674,0.0156-0.1338,0.039-0.1972,0.0547
	c-0.4258,0.1191-0.8604,0.2295-1.2862,0.3476c-1.0254,0.2764-2.0517,0.5449-3.0849,0.8047
	c-0.5215,0.1348-1.0498,0.2608-1.5703,0.3867c-0.2256,0.0557-0.4503,0.1026-0.671,0.1582
	c-0.4502,0.1026-0.8915,0.2051-1.3418,0.3077c-0.3077,0.0712-0.6192,0.1494-0.9307,0.2167c-0.4971,0.1143-1.002,0.2286-1.5,0.335
	c-1.2305,0.2686-2.4697,0.5176-3.7002,0.7578c-0.2373,0.0479-0.4658,0.0947-0.7022,0.1426
	c-1.4521,0.2754-2.9042,0.5283-4.3642,0.7734c-0.4736,0.0782-0.9463,0.1495-1.4199,0.2207
	c-0.4258,0.0663-0.8526,0.1299-1.2784,0.1934c-0.3945,0.0586-0.789,0.1221-1.1835,0.1777
	c-0.2051,0.0312-0.4023,0.0625-0.6075,0.0938c-0.5371,0.0714-1.081,0.1505-1.6259,0.2217
	c-1.0098,0.1338-2.0284,0.2597-3.0381,0.3789c-0.4971,0.0586-0.9942,0.1181-1.4834,0.1728
	c-0.0987,0.0078-0.1973,0.0166-0.292,0.0322c-0.292,0.0274-0.5801,0.0547-0.8682,0.0831c-1.0449,0.1103-2.0908,0.2168-3.1328,0.3115
	c-0.126,0.0117-0.252,0.0234-0.3779,0.0312c-1.0108,0.0909-2.0362,0.1582-3.0536,0.2285c-0.3243,0.0245-0.6475,0.0557-0.9786,0.0753
	c-0.083,0.0038-0.166,0.0118-0.2529,0.0196c-0.5049,0.0322-1.0096,0.0595-1.5068,0.0869c-1.0342,0.0635-2.0596,0.1143-3.0938,0.1582
	c-0.5439,0.0234-1.0966,0.0469-1.6406,0.0714c-0.2139,0.0078-0.4268,0.0117-0.6396,0.0156
	c-0.3868,0.0156-0.7735,0.0234-1.1602,0.0313c-0.457,0.0156-0.915,0.0312-1.373,0.039c-0.4727,0.0078-0.9463,0.0244-1.4278,0.0322
	c-1.499,0.0235-3.0068,0.0312-4.5137,0.0273c-0.2529-0.0038-0.5048-0.0078-0.75-0.0117c-1.2861-0.0078-2.5722-0.0274-3.8505-0.0635
	c-0.5284-0.0117-1.0498-0.0274-1.5782-0.043c-0.3554-0.0117-0.7138-0.0273-1.0732-0.0439
	c-0.4453-0.0156-0.8916-0.0313-1.3408-0.0469c-0.2373-0.0078-0.4698-0.0156-0.7032-0.0273
	c-0.5517-0.0245-1.0966-0.0479-1.6406-0.0752c-1.1133-0.0596-2.2177-0.1221-3.3222-0.1934
	c-0.4502-0.0273-0.8916-0.0518-1.3418-0.0869c-0.0274-0.0039-0.0547-0.0039-0.087-0.0039
	c-0.3505-0.0273-0.7021-0.0596-1.0566-0.0869c-1.1523-0.083-2.3008-0.166-3.4482-0.2686c-0.3243-0.0273-0.6475-0.0625-0.9629-0.0908
	c-0.6709-0.0586-1.3379-0.1299-2.0049-0.1973c-0.4727-0.0429-0.9385-0.0859-1.4043-0.1377
	c-0.0986-0.0078-0.1973-0.0156-0.2998-0.0273c-0.5283-0.0557-1.0576-0.1143-1.5938-0.1738
	c-1.0576-0.1182-2.1152-0.2412-3.1718-0.3711c-0.545-0.0674-1.0811-0.1338-1.6182-0.2051c-0.1104-0.0117-0.2207-0.0274-0.3311-0.043
	c-0.5009-0.0674-1.0058-0.1387-1.5078-0.2051c-0.5752-0.0791-1.1435-0.1503-1.7197-0.2334c-0.3789-0.0507-0.75-0.1025-1.1279-0.1572
	c-1.2315-0.1777-2.4629-0.375-3.6934-0.5722c-0.3076-0.0479-0.6152-0.0909-0.9267-0.1426c-0.0204,0-0.0362-0.0039-0.0596-0.0078
	c-0.3711-0.0586-0.7422-0.126-1.1123-0.1856c-1.208-0.2012-2.4072-0.4062-3.6143-0.6191c-0.5205-0.0948-1.0498-0.1895-1.5703-0.2881
	c-0.2764-0.0508-0.5566-0.1064-0.833-0.1572c-0.4932-0.0909-0.9902-0.1856-1.4795-0.2803
	c-0.3232-0.0635-0.6465-0.1192-0.9697-0.1817c-0.5059-0.1025-1.0186-0.1971-1.5313-0.2997
	c-1.3017-0.2607-2.6045-0.5294-3.914-0.8087c-0.2168-0.0439-0.4336-0.0908-0.6553-0.1385
	c-0.0469-0.0117-0.0986-0.0197-0.1494-0.0313c-0.3477-0.0752-0.7022-0.1582-1.0576-0.2373
	c-1.2266-0.2676-2.4541-0.5361-3.6846-0.8164c-0.3945-0.0908-0.7891-0.1855-1.1836-0.2803
	c-0.5137-0.1181-1.0264-0.2441-1.5391-0.3623c-0.5048-0.123-1.0097-0.2412-1.5146-0.3632c-0.1738-0.043-0.3555-0.0831-0.5293-0.126
	c-0.5127-0.127-1.0254-0.2529-1.5459-0.3828c-1.1289-0.2842-2.2646-0.5723-3.4014-0.8643c-0.4658-0.126-0.9394-0.2451-1.4043-0.3672
	c-0.0986-0.0273-0.2011-0.0547-0.2998-0.083c-0.4424-0.1142-0.8759-0.2363-1.3105-0.3506
	c-0.9502-0.2568-1.9014-0.5088-2.8565-0.7695c-0.0869-0.0234-0.1728-0.0469-0.2597-0.0713c-1.2549-0.3506-2.5098-0.71-3.7647-1.0732
	c-0.2285-0.0625-0.4609-0.1299-0.6943-0.1973c-0.1182-0.0312-0.2402-0.0664-0.3623-0.1025
	c-0.3867-0.1182-0.7813-0.2364-1.1758-0.3467c-1.2158-0.3633-2.4228-0.7266-3.6377-1.0928
	c-0.4736-0.1465-0.9473-0.292-1.4287-0.4385c-0.2324-0.0703-0.4658-0.1494-0.7022-0.2207
	c-0.4931-0.1543-0.9863-0.3076-1.4833-0.4658c-0.4738-0.1494-0.9395-0.292-1.4122-0.4414
	c-0.4111-0.1309-0.8134-0.2607-1.2158-0.3867c-0.6346-0.2051-1.2704-0.4307-1.9012-0.6396
	c-2.0363-0.6621-4.0723-1.3486-6.1075-2.0429c-0.5371-0.1856-1.0732-0.3555-1.6103-0.541c-0.3701-0.1299-0.749-0.2647-1.1201-0.3907
	c-0.4502-0.1582-0.8915-0.3193-1.3418-0.4775c-0.6231-0.2207-1.25-0.4453-1.878-0.667c-0.165-0.0625-0.3349-0.1182-0.5048-0.1807
	c-0.4258-0.1543-0.8604-0.3086-1.2863-0.4658c-1.2939-0.4658-2.5801-0.9394-3.8661-1.4209
	c-0.3076-0.1182-0.624-0.2285-0.9316-0.3467c-0.0469-0.0156-0.0948-0.04-0.1416-0.0556c-3.1094-1.168-6.2178-2.3711-9.3194-3.6055
	c-0.0713-0.0283-0.1416-0.0557-0.2129-0.083c-0.3476-0.1387-0.6943-0.2803-1.0498-0.4219
	c-1.2705-0.5097-2.5488-1.0264-3.8193-1.5469c-0.3789-0.1582-0.7568-0.3115-1.1357-0.4658
	c-0.2129-0.0869-0.418-0.1777-0.6319-0.2646c-0.5166-0.2168-1.0332-0.4297-1.5459-0.6426
	c-0.6592-0.2764-1.3183-0.5527-1.9803-0.8291c-0.1983-0.0869-0.3956-0.169-0.6006-0.252c-0.5596-0.2373-1.1201-0.4931-1.6885-0.7343
	c-2.2373-0.958-4.4736-1.9327-6.707-2.919c-0.4376-0.1972-0.8799-0.3789-1.3174-0.5762c-0.3076-0.1346-0.6084-0.2685-0.9082-0.4023
	c-0.3311-0.1504-0.6621-0.2998-0.9981-0.4502c-0.6748-0.3076-1.3535-0.6113-2.0273-0.915c-0.3203-0.1465-0.6397-0.2881-0.959-0.4346
	c-0.2998-0.1377-0.6074-0.2754-0.9072-0.418c-1.5625-0.7138-3.125-1.4355-4.6797-2.1621c-0.0078-0.0039-0.0078-0.0078-0.0156-0.0078
	c-0.0391-0.0195-0.0791-0.0391-0.1182-0.0547c-0.6553-0.3086-1.3027-0.6201-1.9492-0.9277
	c-0.9942-0.4697-1.9844-0.9346-2.9746-1.4082c0,0-0.0078,0-0.0078-0.0038c-0.6553-0.3115-1.3029-0.6281-1.9493-0.9434
	c-0.8046-0.3867-1.6064-0.7734-2.4072-1.164c-0.1182-0.0586-0.2402-0.1143-0.3623-0.1729c-0.2451-0.123-0.4893-0.2412-0.7344-0.3594
	c-1.4043-0.6904-2.8086-1.3808-4.206-2.0791c-0.2051-0.0986-0.4024-0.2011-0.6074-0.3037c-0.0235-0.0117-0.0469-0.0283-0.0753-0.04
	c-4.5605-2.2803-9.0938-4.6123-13.5956-6.9834c-0.2559-0.1339-0.5166-0.2598-0.7774-0.3985
	c-0.165-0.0908-0.3311-0.1777-0.4971-0.2636c-0.3037-0.1582-0.6074-0.3242-0.9072-0.4815c-0.7695-0.4111-1.539-0.8213-2.3037-1.2314
	c-0.4189-0.2207-0.8447-0.4453-1.2627-0.6709c-0.3398-0.1817-0.6709-0.3701-1.0068-0.5518
	c-3.2823-1.7676-6.5449-3.5547-9.7959-5.3662c-0.3037-0.1699-0.6153-0.3389-0.9199-0.5088
	c-3.5469-1.9765-7.0616-3.9814-10.5577-5.9931c-0.4375-0.2569-0.8759-0.5127-1.3134-0.7657
	c-3.212-1.8623-6.4073-3.7324-9.5723-5.622c-0.3428-0.2012-0.6865-0.4063-1.0254-0.6075c-3.4482-2.0595-6.8691-4.1308-10.2578-6.21
	c-0.3555-0.2178-0.7022-0.4385-1.0576-0.6514c-3.125-1.9258-6.2178-3.8506-9.292-5.7842c-0.374-0.2363-0.7451-0.4697-1.1162-0.7061
	c-0.0791-0.0508-0.1573-0.0986-0.2364-0.1455c0,0,0,0-0.0039,0c-3.247-2.0557-6.4668-4.1152-9.6552-6.1748
	c-0.252-0.1621-0.4971-0.3193-0.7491-0.4854c-3.0341-1.9648-6.0371-3.9297-9.0117-5.8945
	c-0.3984-0.2607-0.7969-0.5244-1.1992-0.7891c-3.1758-2.1025-6.3203-4.2021-9.4219-6.2969
	c-0.1777-0.118-0.3467-0.2372-0.5204-0.3515c-2.9355-1.9844-5.8291-3.9531-8.6899-5.918c-0.3946-0.2724-0.791-0.54-1.1856-0.8164
	c-3.0278-2.083-6.0205-4.1543-8.9619-6.21c-0.0376-0.0283-0.0713-0.0517-0.1089-0.0791c-2.8462-1.9882-5.6396-3.9609-8.4013-5.9178
	c-0.4244-0.2998-0.8487-0.5996-1.2686-0.8994c-1.6255-1.1524-3.2334-2.2969-4.8271-3.4405
	c0.0078,0.0078,0.0175,0.0078,0.0273,0.0157c-3.8823-2.7784-7.6953-5.5235-11.3862-8.2032
	c-0.438-0.3193-0.8741-0.6347-1.3101-0.9502c-3.2392-2.3593-6.3799-4.6601-9.457-6.9248c0,0.0039,0.0019,0.0039,0.0039,0.0078
	c-1.8052-1.329-3.5825-2.6396-5.3306-3.9296c-0.4634-0.3428-0.9209-0.6827-1.3789-1.0215
	c-2.2842-1.6885-4.5351-3.3535-6.7168-4.9756c-1.3393-0.998-2.6889-2.0156-4.0283-3.042c-0.0039,0.0049-0.0078,0.0088-0.0098,0.0166
	c-1.3476,2.126-2.7993,4.123-4.2436,6.1309c-0.4238,0.5918-0.8145,1.2226-1.2446,1.8027c-0.5088,0.6826-1.0416,1.3301-1.5606,2.001
	c-1.4321,1.8418-2.8979,3.6377-4.4067,5.3808c-0.6294,0.7227-1.2608,1.4365-1.9019,2.1465
	c-1.5879,1.7442-3.2173,3.4404-4.8804,5.082c-0.517,0.5088-1.018,1.0411-1.5429,1.5381c-2.2232,2.1231-4.5015,4.1748-6.8413,6.1241
	c-0.2129,0.1777-0.4341,0.3388-0.647,0.5126c-2.1206,1.7442-4.2886,3.4171-6.4941,5.0264
	c-0.6651,0.4815-1.3375,0.9473-2.0103,1.4209c-1.8545,1.3057-3.7324,2.5684-5.6362,3.7832c-0.6783,0.4336-1.355,0.8721-2.0396,1.294
	c-2.2568,1.3925-4.543,2.7265-6.8569,4.0048c-0.2764,0.1495-0.5449,0.3155-0.8189,0.462c-2.685,1.455-5.4033,2.832-8.1474,4.1386
	c-0.5464,0.2598-1.0987,0.4971-1.645,0.753c0.4477-0.209,0.9033-0.3907,1.351-0.6036c0.0039,0.0038,0.0117,0.0079,0.02,0.0157
	c0.1221,0.0869,0.2286,0.166,0.3472,0.249c0.627,0.4453,1.2232,0.8721,1.7632,1.2432
	C402.1282,716.4526,765.7947,973.1898,911.2664,770.6z"/>
</svg>
